<svg width="24" height="24" viewBox="0 0 24 24" fill="none" xmlns="http://www.w3.org/2000/svg">
<g id="iOS/icon/back">
<path id="chevron.backward" d="M7.15601 11.7037C7.15601 11.9674 7.25394 12.1934 7.46488 12.3892L13.3259 18.1297C13.4917 18.2955 13.7026 18.3859 13.9512 18.3859C14.4484 18.3859 14.8477 17.9941 14.8477 17.4894C14.8477 17.2408 14.7422 17.0223 14.5765 16.8491L9.29551 11.7037L14.5765 6.55831C14.7422 6.38504 14.8477 6.15904 14.8477 5.91797C14.8477 5.41323 14.4484 5.02148 13.9512 5.02148C13.7026 5.02148 13.4917 5.11189 13.3259 5.27762L7.46488 11.0106C7.25394 11.214 7.15601 11.44 7.15601 11.7037Z" fill="current"/>
</g>
</svg>
