<svg width="50" height="39" viewBox="0 0 50 39" fill="none" xmlns="http://www.w3.org/2000/svg">
<path d="M16 2.00146H34" stroke="white" stroke-width="3" stroke-linecap="round" stroke-linejoin="round"/>
<path d="M10 2.01667L10.015 2" stroke="white" stroke-width="3" stroke-linecap="round" stroke-linejoin="round"/>
<path d="M10 11.0166L10.015 11" stroke="white" stroke-width="3" stroke-linecap="round" stroke-linejoin="round"/>
<path d="M10 20.0167L10.015 20" stroke="white" stroke-width="3" stroke-linecap="round" stroke-linejoin="round"/>
<path d="M16 11.0015H34" stroke="white" stroke-width="3" stroke-linecap="round" stroke-linejoin="round"/>
<path d="M16 20.0015H34" stroke="white" stroke-width="3" stroke-linecap="round" stroke-linejoin="round"/>
<path d="M4.26 28.32H5.13C5.13 30.6 3.53 32.23 0.93 32.96L0.59 32.31C2.88 31.66 4.26 30.35 4.26 28.67V28.32ZM1.06 28.32H4.82V28.99H1.06V28.32ZM7.1 27.74H7.93V32.9H7.1V27.74ZM5.14 30.06H7.26V30.75H5.14V30.06ZM2.1 33.28H7.93V36.66H2.1V33.28ZM7.12 33.95H2.92V35.98H7.12V33.95ZM11.5892 28.28H12.2492V29.49C12.2492 30.85 11.4792 32.28 10.1492 32.89L9.69922 32.24C10.8792 31.71 11.5892 30.52 11.5892 29.49V28.28ZM11.7192 28.28H12.3792V29.49C12.3792 30.52 13.0492 31.55 14.2092 32.02L13.7692 32.66C12.4592 32.11 11.7192 30.84 11.7192 29.49V28.28ZM16.5192 27.75H17.3092V33.21H16.5192V27.75ZM15.0592 30.09H16.7692V30.78H15.0592V30.09ZM14.5792 27.9H15.3692V33.16H14.5792V27.9ZM11.2492 33.7H17.3092V36.78H16.4892V34.38H11.2492V33.7ZM19.7384 30.69H24.0984V31.37H19.7384V30.69ZM21.4784 31.1H22.3084V32.91H21.4784V31.1ZM19.7384 28.33H24.0384V29.01H20.5684V30.99H19.7384V28.33ZM25.4584 27.74H26.2884V34.5H25.4584V27.74ZM20.4484 35.9H26.5884V36.58H20.4484V35.9ZM20.4484 34.06H21.2684V36.19H20.4484V34.06ZM19.0484 33.36L18.9384 32.68C20.6784 32.68 22.8784 32.64 24.7384 32.42L24.7884 33.03C22.8784 33.31 20.7384 33.36 19.0484 33.36ZM37.5102 27.74H38.3402V32.35H37.5102V27.74ZM34.6502 28.18H35.5502C35.5502 30.46 33.9802 31.92 31.3402 32.56L31.0502 31.88C33.3902 31.34 34.6502 30.15 34.6502 28.59V28.18ZM31.5202 28.18H35.0302V28.86H31.5202V28.18ZM35.2302 29.04H37.6502V29.7H35.2302V29.04ZM35.1502 30.77H37.6002V31.42H35.1502V30.77ZM32.5202 32.77H38.3402V34.99H33.3702V36.43H32.5502V34.35H37.5202V33.44H32.5202V32.77ZM32.5502 36.03H38.6402V36.69H32.5502V36.03ZM40.5094 28.73H44.5994V29.4H40.5094V28.73ZM41.9194 31.31H42.7394V34.37H41.9194V31.31ZM44.2594 28.73H45.0694V29.21C45.0694 29.95 45.0694 31.13 44.8094 32.81L43.9894 32.73C44.2594 31.1 44.2594 29.94 44.2594 29.21V28.73ZM46.2094 27.74H47.0294V36.78H46.2094V27.74ZM46.8094 31.52H48.4794V32.22H46.8094V31.52ZM40.1094 34.81L40.0094 34.11C41.6494 34.11 43.8294 34.08 45.6594 33.85L45.6994 34.46C43.8294 34.76 41.7094 34.8 40.1094 34.81Z" fill="white"/>
</svg>
