<svg width="28" height="36" viewBox="0 0 28 36" fill="none" xmlns="http://www.w3.org/2000/svg">
<path d="M8.26 26.32H9.13C9.13 28.6 7.53 30.23 4.93 30.96L4.59 30.31C6.88 29.66 8.26 28.35 8.26 26.67V26.32ZM5.06 26.32H8.82V26.99H5.06V26.32ZM11.1 25.74H11.93V30.9H11.1V25.74ZM9.14 28.06H11.26V28.75H9.14V28.06ZM6.1 31.28H11.93V34.66H6.1V31.28ZM11.12 31.95H6.92V33.98H11.12V31.95ZM15.5892 26.28H16.2492V27.49C16.2492 28.85 15.4792 30.28 14.1492 30.89L13.6992 30.24C14.8792 29.71 15.5892 28.52 15.5892 27.49V26.28ZM15.7192 26.28H16.3792V27.49C16.3792 28.52 17.0492 29.55 18.2092 30.02L17.7692 30.66C16.4592 30.11 15.7192 28.84 15.7192 27.49V26.28ZM20.5192 25.75H21.3092V31.21H20.5192V25.75ZM19.0592 28.09H20.7692V28.78H19.0592V28.09ZM18.5792 25.9H19.3692V31.16H18.5792V25.9ZM15.2492 31.7H21.3092V34.78H20.4892V32.38H15.2492V31.7Z" fill="white"/>
<path d="M24.7368 10.8421V8.31579C24.7368 4.82768 21.9091 2 18.4211 2H8.31579C4.82768 2 2 4.82768 2 8.31579C2 11.8039 4.82768 14.6316 8.31579 14.6316H13.3684" stroke="white" stroke-width="3" stroke-linecap="round" stroke-linejoin="round"/>
<path d="M23.6305 19.8336C24.3143 19.1481 24.7369 18.2023 24.7369 17.1576C24.7369 15.0647 23.0404 13.3682 20.9474 13.3682C18.8545 13.3682 17.158 15.0647 17.158 17.1576C17.158 19.2506 18.8545 20.9471 20.9474 20.9471C21.9957 20.9471 22.9445 20.5214 23.6305 19.8336ZM23.6305 19.8336L26.0001 22.2103" stroke="white" stroke-width="3" stroke-linecap="round" stroke-linejoin="round"/>
</svg>
