<svg width="18" height="19" viewBox="0 0 18 19" fill="none" xmlns="http://www.w3.org/2000/svg">
<path d="M5.27679 4.09662L2.42913 7.01208C2.31613 7.12508 2.24268 7.30023 2.24268 7.45278C2.24268 7.80874 2.49128 8.0517 2.84159 8.0517C3.01109 8.0517 3.14669 7.9952 3.2597 7.87654L4.42362 6.66742L5.16943 5.8086L5.12423 7.00643V14.0521C5.12423 14.4081 5.37849 14.6623 5.72879 14.6623C6.0791 14.6623 6.32771 14.4081 6.32771 14.0521V7.00643L6.28816 5.8086L7.02832 6.66742L8.19224 7.87654C8.30525 7.9952 8.4465 8.0517 8.616 8.0517C8.96066 8.0517 9.20926 7.80874 9.20926 7.45278C9.20926 7.30023 9.13581 7.12508 9.02281 7.01208L6.17515 4.09662C5.92655 3.83671 5.53104 3.83106 5.27679 4.09662ZM12.7236 14.4646L15.5713 11.5491C15.6843 11.4305 15.7577 11.2553 15.7577 11.1028C15.7577 10.7524 15.5091 10.5095 15.1588 10.5095C14.9893 10.5095 14.8537 10.566 14.7407 10.679L13.5768 11.8881L12.831 12.7469L12.8762 11.5491V4.50343C12.8762 4.15877 12.6219 3.89886 12.2716 3.89886C11.927 3.89886 11.6727 4.15877 11.6727 4.50343V11.5491L11.7123 12.7469L10.9721 11.8881L9.80818 10.679C9.69517 10.566 9.55392 10.5095 9.39007 10.5095C9.03976 10.5095 8.79116 10.7524 8.79116 11.1028C8.79116 11.2553 8.86461 11.4305 8.97761 11.5491L11.8253 14.4646C12.0739 14.7301 12.4694 14.7358 12.7236 14.4646Z" fill="#1C1C1E"/>
</svg>
