<svg width="22" height="21" viewBox="0 0 22 21" fill="none" xmlns="http://www.w3.org/2000/svg">
<path d="M0 0H22V20.8108H0V0Z" fill="white" fill-opacity="0.01"/>
<path d="M3.66675 5.20253C3.66675 4.48417 4.28236 3.90186 5.04175 3.90186H16.9584C17.7178 3.90186 18.3334 4.48417 18.3334 5.20253V9.97168H3.66675V5.20253Z" stroke="white" stroke-width="1.5" stroke-linecap="round" stroke-linejoin="round"/>
<path d="M2.75012 15.1743V16.9086" stroke="white" stroke-width="1.5" stroke-linecap="round" stroke-linejoin="round"/>
<path d="M19.2501 15.1743V16.9086" stroke="white" stroke-width="1.5" stroke-linecap="round" stroke-linejoin="round"/>
<path d="M9.16675 7.80371H6.41675C5.65734 7.80371 5.04175 8.38602 5.04175 9.10439V9.9715H10.5417V9.10439C10.5417 8.38602 9.92616 7.80371 9.16675 7.80371Z" stroke="white" stroke-width="1.5" stroke-linecap="round" stroke-linejoin="round"/>
<path d="M15.5834 7.80371H12.8334C12.074 7.80371 11.4584 8.38602 11.4584 9.10439V9.9715H16.9584V9.10439C16.9584 8.38602 16.3428 7.80371 15.5834 7.80371Z" stroke="white" stroke-width="1.5" stroke-linecap="round" stroke-linejoin="round"/>
<path d="M1.83337 11.2724C1.83337 10.554 2.44898 9.97168 3.20837 9.97168H18.7917C19.5511 9.97168 20.1667 10.554 20.1667 11.2724V15.1744H1.83337V11.2724Z" stroke="white" stroke-width="1.5" stroke-linecap="round" stroke-linejoin="round"/>
</svg>
