<svg width="19" height="19" viewBox="0 0 19 19" fill="none" xmlns="http://www.w3.org/2000/svg">
<path d="M14.2222 9.12184V12.333C14.2222 15.4626 11.6852 17.9996 8.55555 17.9996H6.66667C3.53705 17.9996 1 15.4626 1 12.333V9.12184C1 8.80885 1.25371 8.55518 1.56667 8.55518H13.6556C13.9685 8.55518 14.2222 8.80885 14.2222 9.12184Z" stroke="white" stroke-width="1.5" stroke-linecap="round" stroke-linejoin="round"/>
<path d="M9.5 6.6671C9.5 5.72266 10.1746 4.77821 11.5239 4.77821C13.0141 4.77821 14.2222 3.57009 14.2222 2.0798V1.47266" stroke="white" stroke-width="1.5" stroke-linecap="round" stroke-linejoin="round"/>
<path d="M5.72217 6.66667V6.19444C5.72217 4.62964 6.9907 3.36111 8.5555 3.36111C9.59873 3.36111 10.4444 2.51543 10.4444 1.47222V1" stroke="white" stroke-width="1.5" stroke-linecap="round" stroke-linejoin="round"/>
<path d="M13.2778 8.55518H15.6389C16.9429 8.55518 18.0001 9.61229 18.0001 10.9163C18.0001 12.2203 16.9429 13.2774 15.6389 13.2774H14.2223" stroke="white" stroke-width="1.5" stroke-linecap="round" stroke-linejoin="round"/>
</svg>
