<svg width="20" height="15" viewBox="0 0 20 15" fill="none" xmlns="http://www.w3.org/2000/svg">
<path d="M14.4121 11.9735C16.4442 14.8185 19.6539 12.7173 18.8828 9.94137C17.7247 5.77236 17.0946 3.4512 16.7669 2.22572C16.574 1.50507 15.9209 1 15.1749 1H4.70791C3.96193 1 3.3118 1.50788 3.13041 2.23147C2.44814 4.9533 1.8394 7.34154 1.11722 9.94137C0.34611 12.7173 3.55578 14.8185 5.58791 11.9735" stroke="white" stroke-width="1.5" stroke-linecap="round" stroke-linejoin="round"/>
<path d="M14.8185 4.6582L14.8275 4.66633" stroke="white" stroke-width="1.5" stroke-linecap="round" stroke-linejoin="round"/>
<path d="M13.5911 3.43848L13.6001 3.44661" stroke="white" stroke-width="1.5" stroke-linecap="round" stroke-linejoin="round"/>
<path d="M13.5911 5.87695L13.6001 5.88508" stroke="white" stroke-width="1.5" stroke-linecap="round" stroke-linejoin="round"/>
<path d="M12.38 4.6582L12.389 4.66633" stroke="white" stroke-width="1.5" stroke-linecap="round" stroke-linejoin="round"/>
<path d="M5.8772 3.43848V5.87703" stroke="white" stroke-width="1.5" stroke-linecap="round" stroke-linejoin="round"/>
<path d="M4.65796 4.6582H7.09651" stroke="white" stroke-width="1.5" stroke-linecap="round" stroke-linejoin="round"/>
<path d="M6.69003 10.7538C7.58789 10.7538 8.31574 10.026 8.31574 9.12814C8.31574 8.23027 7.58789 7.50244 6.69003 7.50244C5.79218 7.50244 5.06433 8.23027 5.06433 9.12814C5.06433 10.026 5.79218 10.7538 6.69003 10.7538Z" stroke="white" stroke-width="1.5" stroke-linecap="round" stroke-linejoin="round"/>
<path d="M13.1928 10.7538C14.0907 10.7538 14.8185 10.026 14.8185 9.12814C14.8185 8.23027 14.0907 7.50244 13.1928 7.50244C12.295 7.50244 11.5671 8.23027 11.5671 9.12814C11.5671 10.026 12.295 10.7538 13.1928 10.7538Z" stroke="white" stroke-width="1.5" stroke-linecap="round" stroke-linejoin="round"/>
</svg>
