<svg width="40" height="50" viewBox="0 0 40 50" fill="none" xmlns="http://www.w3.org/2000/svg">
<ellipse cx="20" cy="20.5" rx="20" ry="20.5" fill="white"/>
<path d="M18.7507 48.5082L6 35H34L21.5499 48.4924C20.7977 49.3076 19.5121 49.3149 18.7507 48.5082Z" fill="white"/>
<path d="M34.5833 19.8333C34.5833 28.1167 20 42.75 20 42.75C20 42.75 5.41663 28.1167 5.41663 19.8333C5.41663 11.55 11.9458 5.25 20 5.25C28.0541 5.25 34.5833 11.55 34.5833 19.8333Z" stroke="black" stroke-width="2" stroke-linecap="round" stroke-linejoin="round"/>
<path d="M20 9C25.523 9 30 13.477 30 19C30 24.523 25.523 29 20 29C14.477 29 10 24.523 10 19C10 13.477 14.477 9 20 9ZM20 13C18.4087 13 16.8826 13.6321 15.7574 14.7574C14.6321 15.8826 14 17.4087 14 19C14 20.5913 14.6321 22.1174 15.7574 23.2426C16.8826 24.3679 18.4087 25 20 25C21.5913 25 23.1174 24.3679 24.2426 23.2426C25.3679 22.1174 26 20.5913 26 19C26 17.4087 25.3679 15.8826 24.2426 14.7574C23.1174 13.6321 21.5913 13 20 13ZM20 14.75C20.4805 14.75 20.9508 14.8884 21.3547 15.1488C21.7585 15.4091 22.0788 15.7803 22.2771 16.218C22.4755 16.6556 22.5435 17.1411 22.4731 17.6164C22.4026 18.0917 22.1967 18.5367 21.88 18.898C22.445 19.354 22.8 20.015 22.8 20.75C22.8 22.13 21.546 23.25 20 23.25C18.454 23.25 17.2 22.13 17.2 20.75C17.2 20.015 17.555 19.354 18.12 18.897C17.8036 18.5357 17.5979 18.0908 17.5277 17.6157C17.4574 17.1405 17.5255 16.6552 17.7238 16.2178C17.9222 15.7803 18.2423 15.4093 18.6459 15.149C19.0496 14.8887 19.5197 14.7502 20 14.75ZM20 19.75C19.246 19.75 18.7 20.238 18.7 20.75C18.7 21.262 19.247 21.75 20 21.75C20.754 21.75 21.3 21.262 21.3 20.75C21.3 20.238 20.754 19.75 20 19.75ZM20 16.25C19.7348 16.25 19.4804 16.3554 19.2929 16.5429C19.1054 16.7304 19 16.9848 19 17.25C19 17.5152 19.1054 17.7696 19.2929 17.9571C19.4804 18.1446 19.7348 18.25 20 18.25C20.2652 18.25 20.5196 18.1446 20.7071 17.9571C20.8946 17.7696 21 17.5152 21 17.25C21 16.9848 20.8946 16.7304 20.7071 16.5429C20.5196 16.3554 20.2652 16.25 20 16.25Z" fill="black"/>
</svg>
