<svg width="40" height="50" viewBox="0 0 40 50" fill="none" xmlns="http://www.w3.org/2000/svg">
<ellipse cx="20" cy="20.5" rx="20" ry="20.5" fill="white"/>
<path d="M18.7507 48.5082L6 35H34L21.5499 48.4924C20.7977 49.3076 19.5121 49.3149 18.7507 48.5082Z" fill="white"/>
<path d="M34.5833 19.8333C34.5833 28.1167 20 42.75 20 42.75C20 42.75 5.41663 28.1167 5.41663 19.8333C5.41663 11.55 11.9458 5.25 20 5.25C28.0541 5.25 34.5833 11.55 34.5833 19.8333Z" stroke="black" stroke-width="2" stroke-linecap="round" stroke-linejoin="round"/>
<path d="M23.186 11.125C22.8717 11.1249 22.5613 11.1991 22.2774 11.3421C21.9934 11.4851 21.7429 11.6933 21.5441 11.9518C21.3453 12.2102 21.2031 12.5124 21.1279 12.8364C21.0527 13.1604 21.0462 13.4981 21.1091 13.825C21.1262 13.9116 21.1238 14.0013 21.1021 14.0867C21.0805 14.1721 21.0401 14.2509 20.9844 14.3167C20.9286 14.3824 20.859 14.4333 20.7813 14.4652C20.7035 14.497 20.6198 14.509 20.5369 14.5C20.1872 14.5 19.8566 14.59 19.5663 14.7498C19.4075 14.4112 19.2092 14.0952 18.976 13.8093C19.2961 13.6171 19.6454 13.4857 20.0081 13.4211V13.375C20.0081 12.9318 20.0904 12.4929 20.2501 12.0834C20.4099 11.674 20.644 11.3019 20.9392 10.9885C21.2344 10.6751 21.5849 10.4265 21.9706 10.2569C22.3562 10.0873 22.7696 10 23.1871 10C23.6046 10 24.0179 10.0873 24.4036 10.2569C24.7893 10.4265 25.1398 10.6751 25.435 10.9885C25.7302 11.3019 25.9643 11.674 26.1241 12.0834C26.2838 12.4929 26.3661 12.9318 26.3661 13.375L26.365 13.4211C26.7813 13.4979 27.179 13.662 27.5349 13.9038C27.8907 14.1456 28.1976 14.4604 28.4376 14.8296C28.6775 15.1988 28.8458 15.6151 28.9324 16.0541C29.0191 16.4932 29.0224 16.9462 28.9423 17.3866C28.8621 17.827 28.7001 18.2461 28.4656 18.6192C28.2311 18.9924 27.9289 19.3122 27.5767 19.56C27.2245 19.8077 26.8292 19.9784 26.4141 20.0621C25.999 20.1458 25.5724 20.1408 25.1591 20.0474L25.3922 21.0678C25.4583 21.3575 25.4616 21.6593 25.4018 21.9506C25.342 22.2418 25.2207 22.5148 25.047 22.749C24.8734 22.9833 24.6519 23.1725 24.3992 23.3026C24.1466 23.4327 23.8695 23.5002 23.5887 23.5H22.7812C22.5004 23.4999 22.2233 23.4322 21.9707 23.3018C21.7182 23.1715 21.4968 22.9819 21.3233 22.7475C21.1499 22.513 21.0288 22.2398 20.9693 21.9484C20.9098 21.6571 20.9134 21.3552 20.9798 21.0655L21.4567 18.982C21.4731 18.9102 21.5027 18.8425 21.5437 18.7829C21.5848 18.7232 21.6365 18.6727 21.6959 18.6343C21.7554 18.5958 21.8213 18.5702 21.8901 18.5588C21.9589 18.5474 22.0291 18.5506 22.0967 18.568C22.1643 18.5854 22.2281 18.6168 22.2843 18.6604C22.3405 18.704 22.388 18.7589 22.4242 18.822C22.4604 18.8851 22.4846 18.9552 22.4953 19.0282C22.506 19.1012 22.5031 19.1757 22.4867 19.2475L22.0098 21.3321C21.9814 21.4562 21.9799 21.5855 22.0055 21.7102C22.031 21.835 22.0828 21.952 22.1571 22.0524C22.2313 22.1528 22.3261 22.234 22.4342 22.2899C22.5423 22.3458 22.661 22.3749 22.7812 22.375H23.5887C23.7091 22.3752 23.828 22.3463 23.9364 22.2906C24.0448 22.2349 24.1398 22.1537 24.2143 22.0533C24.2888 21.9528 24.3409 21.8357 24.3665 21.7108C24.3921 21.5858 24.3907 21.4564 24.3622 21.3321L23.8854 19.2464C23.8607 19.1371 23.8674 19.0226 23.9046 18.9174C23.9418 18.8122 24.0078 18.7213 24.0941 18.6563C24.1803 18.5913 24.283 18.5553 24.3888 18.5527C24.4946 18.5502 24.5986 18.5814 24.6876 18.6423C24.9661 18.8323 25.2826 18.9505 25.6119 18.9872C25.9411 19.024 26.2739 18.9784 26.5836 18.854C26.8932 18.7296 27.1711 18.5299 27.395 18.271C27.6188 18.012 27.7824 17.701 27.8727 17.3628C27.9629 17.0246 27.9772 16.6687 27.9146 16.3236C27.8519 15.9785 27.7139 15.6537 27.5117 15.3754C27.3095 15.0971 27.0487 14.8729 26.7502 14.7209C26.4517 14.5689 26.1238 14.4932 25.7928 14.5C25.7133 14.5017 25.6345 14.4844 25.5622 14.4494C25.4899 14.4144 25.4259 14.3625 25.375 14.2977C25.3241 14.2329 25.2877 14.1567 25.2683 14.0749C25.2489 13.9931 25.247 13.9077 25.263 13.825C25.3258 13.4981 25.3194 13.1604 25.2442 12.8364C25.1689 12.5124 25.0267 12.2102 24.8279 11.9518C24.6291 11.6933 24.3787 11.4851 24.0947 11.3421C23.8107 11.1991 23.5003 11.1249 23.186 11.125ZM13.6491 16.75C13.6491 16.3935 13.7289 16.0421 13.882 15.7247C14.035 15.4074 14.2568 15.1332 14.5293 14.9247C14.8017 14.7162 15.1169 14.5795 15.4488 14.5257C15.7808 14.472 16.1201 14.5027 16.4386 14.6155C16.7572 14.7282 17.046 14.9197 17.2812 15.1742C17.5164 15.4287 17.6912 15.7388 17.7914 16.0791C17.8915 16.4194 17.914 16.7801 17.8571 17.1315C17.8001 17.4828 17.6654 17.8148 17.4639 18.1C17.4049 18.1836 17.3689 18.2829 17.3601 18.387C17.3512 18.491 17.3699 18.5956 17.4139 18.6891C17.4579 18.7825 17.5255 18.8611 17.6092 18.916C17.6929 18.9709 17.7894 19 17.8878 19H18.4176C18.5581 19 18.6929 19.0593 18.7922 19.1648C18.8916 19.2702 18.9474 19.4133 18.9474 19.5625C18.9474 19.7117 18.8916 19.8548 18.7922 19.9602C18.6929 20.0657 18.5581 20.125 18.4176 20.125H17.2445C17.1696 20.1251 17.0956 20.142 17.0273 20.1747C16.959 20.2073 16.898 20.255 16.8483 20.3145C16.7987 20.3741 16.7615 20.4441 16.7392 20.52C16.7169 20.596 16.71 20.676 16.719 20.755C17.039 23.5338 18.4239 25.129 19.1986 25.8175C19.384 25.9817 19.4772 26.1887 19.4772 26.3676C19.4772 26.5022 19.4269 26.6312 19.3373 26.7264C19.2476 26.8215 19.1261 26.875 18.9993 26.875H12.5365C12.4099 26.8747 12.2887 26.8211 12.1993 26.726C12.1099 26.6309 12.0597 26.502 12.0597 26.3676C12.0597 26.1876 12.1529 25.9817 12.3373 25.8175C13.113 25.129 14.499 23.5338 14.8179 20.755C14.8269 20.676 14.82 20.596 14.7977 20.52C14.7754 20.4441 14.7382 20.3741 14.6886 20.3145C14.6389 20.255 14.5779 20.2073 14.5096 20.1747C14.4413 20.142 14.3673 20.1251 14.2923 20.125H13.1193C12.9788 20.125 12.844 20.0657 12.7447 19.9602C12.6453 19.8548 12.5895 19.7117 12.5895 19.5625C12.5895 19.4133 12.6453 19.2702 12.7447 19.1648C12.844 19.0593 12.9788 19 13.1193 19H13.6491C13.7475 19 13.844 18.9709 13.9277 18.916C14.0114 18.8611 14.079 18.7825 14.123 18.6891C14.167 18.5956 14.1857 18.491 14.1768 18.387C14.168 18.2829 14.132 18.1836 14.073 18.1C13.7971 17.711 13.6483 17.237 13.6491 16.75ZM15.7684 13.375C15.2566 13.3749 14.7522 13.5059 14.2983 13.7571C13.8444 14.0083 13.4543 14.3721 13.1612 14.8177C12.8681 15.2633 12.6807 15.7774 12.615 16.3163C12.5492 16.8553 12.607 17.4031 12.7834 17.9133C12.4001 18.0014 12.061 18.2369 11.8314 18.5745C11.6017 18.912 11.4977 19.3278 11.5394 19.7418C11.5811 20.1559 11.7655 20.5389 12.0571 20.8173C12.3488 21.0957 12.7271 21.2498 13.1193 21.25H13.6703C13.2761 23.2727 12.2366 24.4405 11.657 24.9546C11.2903 25.2809 11 25.7826 11 26.3676C11 27.2687 11.6888 28 12.5376 28H19.0004C19.8481 28 20.5369 27.2687 20.5369 26.3676C20.5369 25.7826 20.2465 25.2809 19.8799 24.9546C19.3003 24.4405 18.2608 23.2727 17.8666 21.25H18.4176C18.8098 21.2498 19.1881 21.0957 19.4797 20.8173C19.7714 20.5389 19.9558 20.1559 19.9975 19.7418C20.0392 19.3278 19.9352 18.912 19.7055 18.5745C19.4759 18.2369 19.1368 18.0014 18.7535 17.9133C18.9299 17.4031 18.9877 16.8553 18.9219 16.3163C18.8562 15.7774 18.6688 15.2633 18.3757 14.8177C18.0826 14.3721 17.6925 14.0083 17.2386 13.7571C16.7847 13.5059 16.2803 13.3749 15.7684 13.375Z" fill="black"/>
</svg>
