<svg width="40" height="50" viewBox="0 0 40 50" fill="none" xmlns="http://www.w3.org/2000/svg">
<ellipse cx="20" cy="20.5" rx="20" ry="20.5" fill="white"/>
<path d="M18.7507 48.5082L6 35H34L21.5499 48.4924C20.7977 49.3076 19.5121 49.3149 18.7507 48.5082Z" fill="white"/>
<path d="M34.5833 19.8333C34.5833 28.1167 20 42.75 20 42.75C20 42.75 5.41663 28.1167 5.41663 19.8333C5.41663 11.55 11.9458 5.25 20 5.25C28.0541 5.25 34.5833 11.55 34.5833 19.8333Z" stroke="black" stroke-width="2" stroke-linecap="round" stroke-linejoin="round"/>
<path d="M24.4121 23.9735C26.4442 26.8185 29.6539 24.7173 28.8828 21.9414C27.7247 17.7724 27.0946 15.4512 26.7669 14.2257C26.574 13.5051 25.9209 13 25.1749 13H14.7079C13.9619 13 13.3118 13.5079 13.1304 14.2315C12.4481 16.9533 11.8394 19.3415 11.1172 21.9414C10.3461 24.7173 13.5558 26.8185 15.5879 23.9735" stroke="black" stroke-width="1.5" stroke-linecap="round" stroke-linejoin="round"/>
<path d="M24.8185 16.6582L24.8275 16.6663" stroke="black" stroke-width="1.5" stroke-linecap="round" stroke-linejoin="round"/>
<path d="M23.5911 15.4385L23.6001 15.4466" stroke="black" stroke-width="1.5" stroke-linecap="round" stroke-linejoin="round"/>
<path d="M23.5911 17.877L23.6001 17.8851" stroke="black" stroke-width="1.5" stroke-linecap="round" stroke-linejoin="round"/>
<path d="M22.38 16.6582L22.389 16.6663" stroke="black" stroke-width="1.5" stroke-linecap="round" stroke-linejoin="round"/>
<path d="M15.8772 15.4385V17.877" stroke="black" stroke-width="1.5" stroke-linecap="round" stroke-linejoin="round"/>
<path d="M14.658 16.6582H17.0965" stroke="black" stroke-width="1.5" stroke-linecap="round" stroke-linejoin="round"/>
<path d="M16.69 22.7538C17.5879 22.7538 18.3157 22.026 18.3157 21.1281C18.3157 20.2303 17.5879 19.5024 16.69 19.5024C15.7922 19.5024 15.0643 20.2303 15.0643 21.1281C15.0643 22.026 15.7922 22.7538 16.69 22.7538Z" stroke="black" stroke-width="1.5" stroke-linecap="round" stroke-linejoin="round"/>
<path d="M23.1928 22.7538C24.0907 22.7538 24.8185 22.026 24.8185 21.1281C24.8185 20.2303 24.0907 19.5024 23.1928 19.5024C22.295 19.5024 21.5671 20.2303 21.5671 21.1281C21.5671 22.026 22.295 22.7538 23.1928 22.7538Z" stroke="black" stroke-width="1.5" stroke-linecap="round" stroke-linejoin="round"/>
</svg>
