<svg width="40" height="50" viewBox="0 0 40 50" fill="none" xmlns="http://www.w3.org/2000/svg">
<ellipse cx="20" cy="20.5" rx="20" ry="20.5" fill="white"/>
<path d="M18.7507 48.5082L6 35H34L21.5499 48.4924C20.7977 49.3076 19.5121 49.3149 18.7507 48.5082Z" fill="white"/>
<path d="M34.5833 19.8333C34.5833 28.1167 20 42.75 20 42.75C20 42.75 5.41663 28.1167 5.41663 19.8333C5.41663 11.55 11.9458 5.25 20 5.25C28.0541 5.25 34.5833 11.55 34.5833 19.8333Z" stroke="black" stroke-width="2" stroke-linecap="round" stroke-linejoin="round"/>
<path d="M16.6315 21.6492C16.6315 21.6492 18.5667 21.4964 19.9065 20.1204C21.2463 18.7444 21.3951 16.7568 21.3951 16.7568L24.6591 22.0246C25.1875 22.8773 25.0683 23.9924 24.3724 24.707C23.6766 25.4216 22.5908 25.5441 21.7606 25.0015L16.6315 21.6492Z" stroke="black" stroke-width="1.5"/>
<path d="M16.6316 21.5135C19.1895 21.5135 21.2632 19.3838 21.2632 16.7568C21.2632 14.1297 19.1895 12 16.6316 12C14.0736 12 12 14.1297 12 16.7568C12 19.3838 14.0736 21.5135 16.6316 21.5135Z" stroke="black" stroke-width="1.5"/>
<path d="M12.6978 21.2775L21.0342 12.7158" stroke="black" stroke-width="1.5" stroke-linecap="round" stroke-linejoin="round"/>
<path d="M24.6316 24.5405L28.0001 28H24.2106" stroke="black" stroke-width="1.5" stroke-linecap="round" stroke-linejoin="round"/>
</svg>
