<svg width="40" height="50" viewBox="0 0 40 50" fill="none" xmlns="http://www.w3.org/2000/svg">
<ellipse cx="20" cy="20.5" rx="20" ry="20.5" fill="white"/>
<path d="M18.7507 48.5082L6 35H34L21.5499 48.4924C20.7977 49.3076 19.5121 49.3149 18.7507 48.5082Z" fill="white"/>
<path d="M34.5833 19.8333C34.5833 28.1167 20 42.75 20 42.75C20 42.75 5.41663 28.1167 5.41663 19.8333C5.41663 11.55 11.9458 5.25 20 5.25C28.0541 5.25 34.5833 11.55 34.5833 19.8333Z" stroke="black" stroke-width="2" stroke-linecap="round" stroke-linejoin="round"/>
<path fill-rule="evenodd" clip-rule="evenodd" d="M23.6667 12.0615C24.5683 12.582 25.3487 13.2884 25.9562 14.1339C26.5636 14.9793 26.984 15.9444 27.1895 16.965C27.3951 17.9855 27.3809 19.0381 27.1481 20.0528C26.9153 21.0675 26.4691 22.0209 25.8392 22.8498C26.5944 23.0455 27.2525 23.5097 27.6903 24.1555C28.1281 24.8012 28.3157 25.5844 28.2179 26.3584C28.1202 27.1324 27.7438 27.8444 27.1592 28.361C26.5746 28.8777 25.8219 29.1637 25.0417 29.1656C24.5821 29.1656 24.1279 29.0669 23.7097 28.8761C23.2916 28.6853 22.9194 28.4069 22.6182 28.0597C22.317 27.7126 22.0939 27.3048 21.9641 26.8639C21.8342 26.423 21.8006 25.9594 21.8654 25.5044C20.6095 25.8359 19.288 25.8273 18.0365 25.4797L16.546 28.061C16.4244 28.2716 16.2242 28.4252 15.9894 28.4881C15.7546 28.551 15.5044 28.5181 15.2938 28.3965L13.7062 27.4799C13.4956 27.3583 13.342 27.1581 13.2791 26.9233C13.2162 26.6884 13.2491 26.4382 13.3707 26.2277L14.8612 23.6464C13.5856 22.3962 12.8101 20.7235 12.6803 18.9422C12.5505 17.1608 13.0752 15.3934 14.156 13.9714C15.2367 12.5495 16.7993 11.5709 18.5504 11.2192C20.3015 10.8676 22.1207 11.1671 23.6667 12.0615ZM25.0417 24.5832C24.677 24.5832 24.3273 24.7281 24.0694 24.9859C23.8115 25.2438 23.6667 25.5935 23.6667 25.9582C23.6667 26.3229 23.8115 26.6726 24.0694 26.9305C24.3273 27.1883 24.677 27.3332 25.0417 27.3332C25.4063 27.3332 25.7561 27.1883 26.0139 26.9305C26.2718 26.6726 26.4167 26.3229 26.4167 25.9582C26.4167 25.5935 26.2718 25.2438 26.0139 24.9859C25.7561 24.7281 25.4063 24.5832 25.0417 24.5832ZM16.9475 23.0001L16.9383 23.1339C16.9129 23.56 16.7886 23.9742 16.5753 24.3439C16.7528 24.0365 16.9882 23.7663 17.2683 23.5483L17.4416 23.4236L17.5534 23.3503L16.9466 23.0001H16.9475ZM22.75 13.6492C21.6996 13.042 20.4779 12.7993 19.2751 12.9586C18.0724 13.118 16.9561 13.6706 16.1001 14.5304C15.244 15.3902 14.6963 16.5089 14.5422 17.7124C14.3881 18.9158 14.6363 20.1364 15.248 21.1842C15.2868 21.0635 15.3503 20.9522 15.4343 20.8573C15.5184 20.7624 15.6212 20.6859 15.7363 20.6328C15.8514 20.5796 15.9762 20.5509 16.103 20.5485C16.2297 20.546 16.3556 20.5699 16.4727 20.6186L16.579 20.6709L19.7543 22.5042C19.8727 22.5726 19.9743 22.6666 20.0517 22.7794C20.129 22.8922 20.1801 23.0208 20.2013 23.1559C20.2225 23.291 20.2132 23.4291 20.1741 23.5601C20.135 23.6911 20.067 23.8117 19.9753 23.9131C21.1884 23.9189 22.3694 23.5234 23.3344 22.7883C24.2994 22.0532 24.9943 21.0196 25.3109 19.8485C25.6275 18.6774 25.548 17.4345 25.0848 16.3133C24.6217 15.1921 23.8008 14.2554 22.75 13.6492Z" fill="black"/>
</svg>
