<svg width="40" height="50" viewBox="0 0 40 50" fill="none" xmlns="http://www.w3.org/2000/svg">
<ellipse cx="20" cy="20.5" rx="20" ry="20.5" fill="white"/>
<path d="M18.7507 48.5082L6 35H34L21.5499 48.4924C20.7977 49.3076 19.5121 49.3149 18.7507 48.5082Z" fill="white"/>
<path d="M34.5833 19.8333C34.5833 28.1167 20 42.75 20 42.75C20 42.75 5.41663 28.1167 5.41663 19.8333C5.41663 11.55 11.9458 5.25 20 5.25C28.0541 5.25 34.5833 11.55 34.5833 19.8333Z" stroke="black" stroke-width="2" stroke-linecap="round" stroke-linejoin="round"/>
<path d="M20 28C24.9705 28 29 23.9705 29 19C29 14.0294 24.9705 10 20 10C15.0294 10 11 14.0294 11 19C11 23.9705 15.0294 28 20 28Z" stroke="black" stroke-width="1.5" stroke-linecap="round" stroke-linejoin="round"/>
<path d="M17.2999 16.3C17.2999 13.15 22.2499 13.15 22.2499 16.3C22.2499 18.55 19.9999 18.0999 19.9999 20.7999" stroke="black" stroke-width="1.5" stroke-linecap="round" stroke-linejoin="round"/>
<path d="M20 24.4084L20.0085 24.3989" stroke="black" stroke-width="1.5" stroke-linecap="round" stroke-linejoin="round"/>
</svg>
